<?xml version="1.0" standalone="no"?>
<!DOCTYPE svg PUBLIC "-//W3C//DTD SVG 20010904//EN"
 "http://www.w3.org/TR/2001/REC-SVG-20010904/DTD/svg10.dtd">
<svg version="1.0" xmlns="http://www.w3.org/2000/svg"
 width="225.000000pt" height="225.000000pt" viewBox="0 0 225.000000 225.000000"
 preserveAspectRatio="xMidYMid meet">

<g transform="translate(0.000000,225.000000) scale(0.100000,-0.100000)"
fill="#000000" stroke="none">
<path d="M819 1543 c-24 -27 -39 -59 -39 -84 0 -18 -4 -20 -22 -14 -98 31
-168 30 -168 -1 0 -9 17 -33 38 -54 l38 -38 -76 -79 c-41 -43 -86 -86 -100
-95 l-25 -16 31 -32 32 -32 46 27 c65 38 150 45 208 16 23 -12 59 -34 78 -50
l35 -29 -18 -36 c-11 -24 -24 -36 -37 -36 -11 0 -26 -12 -35 -29 -12 -23 -23
-31 -52 -34 -21 -2 145 -4 370 -5 266 -1 407 1 407 8 0 6 -32 10 -75 10 -60 0
-73 3 -69 14 8 20 101 25 144 8 47 -19 138 -12 172 13 65 48 95 166 64 248
-16 44 -61 96 -72 85 -3 -3 0 -33 7 -67 16 -82 7 -150 -21 -173 -23 -18 -67
-34 -75 -26 -2 2 1 36 6 76 25 176 -44 297 -216 379 -130 62 -266 56 -424 -17
-35 -17 -65 -30 -67 -30 -2 0 -4 9 -4 20 0 11 -15 36 -33 56 -31 34 -33 35
-48 17z m50 -47 c12 -18 21 -44 21 -57 0 -36 -23 -139 -31 -139 -5 0 -21 17
-36 37 -34 44 -39 122 -10 166 23 35 31 34 56 -7z m308 -15 c29 -43 46 -130
38 -194 -3 -29 -18 -91 -32 -139 l-26 -86 -43 -11 c-63 -16 -123 -13 -171 8
-78 36 -94 94 -64 227 11 49 22 100 23 114 2 20 17 32 69 58 65 33 154 62 174
58 6 -1 20 -17 32 -35z m66 -8 c32 -72 29 -201 -7 -308 -30 -88 -42 -113 -51
-104 -3 4 6 46 20 94 40 139 31 288 -21 346 -16 18 -16 19 10 19 23 0 31 -8
49 -47z m44 2 c21 -60 27 -166 14 -237 -14 -70 -58 -178 -73 -178 -6 0 -7 8
-3 18 68 176 78 319 30 413 -15 29 -15 31 1 27 9 -2 23 -21 31 -43z m52 -11
c18 -55 17 -189 -4 -260 -20 -70 -61 -154 -75 -154 -6 0 -3 14 6 32 57 109 76
242 50 351 -19 82 -19 80 -3 75 6 -3 18 -22 26 -44z m46 -6 c11 -46 8 -188 -4
-241 -14 -62 -67 -177 -80 -177 -15 0 -15 -2 18 71 43 96 54 159 48 263 -2 50
-8 99 -12 109 -5 13 -3 16 8 11 9 -3 19 -19 22 -36z m46 -19 c12 -43 9 -128
-7 -206 -22 -108 -80 -231 -99 -211 -2 2 12 34 30 73 42 87 59 177 53 289 -3
57 -1 85 6 83 6 -2 13 -14 17 -28z m-701 -5 c52 -21 51 -38 -4 -54 -38 -10
-47 -10 -70 5 -24 16 -46 44 -46 59 0 12 82 5 120 -10z m748 -75 c2 -41 -2
-101 -8 -134 -11 -58 -55 -160 -85 -199 -27 -35 -24 -12 5 49 42 85 63 176 64
277 1 108 20 113 24 7z m42 -36 c0 -106 -36 -227 -90 -304 -34 -47 -42 -23 -9
29 43 68 70 164 76 270 6 104 23 107 23 5z m-689 -20 c22 -20 24 -28 21 -102
l-3 -79 -35 23 c-66 45 -152 45 -240 0 -35 -18 -51 -21 -61 -13 -20 16 -16 33
13 48 14 8 48 42 75 76 53 67 81 89 137 108 35 12 38 12 53 -13 9 -14 27 -36
40 -48z m754 -27 c8 -27 15 -68 15 -91 0 -42 -16 -145 -24 -153 -9 -8 -139
-53 -143 -48 -2 2 10 26 27 52 40 63 69 159 77 252 5 67 8 73 20 56 7 -10 20
-41 28 -68z m160 -46 c3 -5 -1 -10 -9 -10 -9 0 -16 5 -16 10 0 6 4 10 9 10 6
0 13 -4 16 -10z m15 -45 c0 -8 -7 -15 -15 -15 -8 0 -15 7 -15 15 0 8 7 15 15
15 8 0 15 -7 15 -15z m0 -51 c0 -17 -22 -14 -28 4 -2 7 3 12 12 12 9 0 16 -7
16 -16z m-15 -34 c3 -5 -1 -10 -9 -10 -9 0 -16 5 -16 10 0 6 4 10 9 10 6 0 13
-4 16 -10z m-5 -40 c0 -5 -7 -7 -15 -4 -8 4 -15 8 -15 10 0 2 7 4 15 4 8 0 15
-4 15 -10z m-796 -21 c21 -10 23 -15 15 -30 -5 -11 -16 -19 -24 -19 -7 0 -23
-13 -35 -30 -17 -23 -29 -30 -56 -30 -32 0 -34 2 -24 20 6 11 19 20 30 20 13
0 27 14 40 40 23 45 21 44 54 29z m773 -5 c3 -8 1 -20 -6 -27 -8 -8 -11 -8
-11 0 0 6 -3 18 -6 27 -3 9 -1 16 5 16 7 0 14 -7 18 -16z m-537 0 c0 -18 -24
-44 -41 -44 -11 0 -24 -11 -31 -25 -6 -14 -19 -25 -29 -25 -17 0 -17 2 1 42
10 23 27 46 37 49 22 9 63 11 63 3z m85 -4 c22 -9 24 -13 15 -31 -9 -16 -18
-19 -36 -15 -19 5 -27 1 -36 -19 -9 -21 -18 -25 -50 -25 -43 0 -50 22 -9 28
14 2 28 17 38 38 18 36 34 41 78 24z m415 -25 c0 -14 -4 -25 -10 -25 -5 0 -10
11 -10 25 0 14 5 25 10 25 6 0 10 -11 10 -25z m-620 -24 c-19 -39 -20 -39 -85
-43 -67 -3 -79 7 -36 28 12 6 29 21 37 33 12 16 26 21 60 21 l44 0 -20 -39z
m541 -8 c-9 -16 -10 -16 -11 -1 0 9 3 25 7 35 7 16 8 17 11 1 2 -10 -1 -25 -7
-35z m49 17 c0 -10 -7 -20 -15 -24 -16 -6 -18 -2 -9 31 7 26 24 21 24 -7z
m-279 -6 c5 -3 4 -14 -1 -25 -9 -16 -22 -19 -81 -19 -52 0 -70 3 -67 13 3 6
18 14 33 15 16 2 35 12 42 23 11 15 18 16 40 8 14 -5 30 -12 34 -15z m209 19
c0 -14 -19 -38 -25 -32 -8 8 5 39 16 39 5 0 9 -3 9 -7z"/>
<path d="M696 1294 c-19 -18 -19 -20 -6 -45 6 -11 21 -19 35 -19 20 0 45 24
45 44 0 10 -32 36 -45 36 -7 0 -21 -7 -29 -16z m49 -14 c4 -6 1 -18 -6 -26
-11 -13 -14 -13 -27 0 -8 8 -11 19 -8 25 9 14 33 14 41 1z"/>
<path d="M441 768 c-13 -29 -25 -59 -28 -65 -3 -7 2 -13 10 -13 8 0 17 7 21
15 8 21 56 19 72 -2 25 -35 26 -2 2 54 -33 76 -49 78 -77 11z m44 -26 c-22 -5
-27 1 -19 23 7 17 8 17 21 -1 12 -17 12 -19 -2 -22z"/>
<path d="M600 755 c0 -51 3 -65 15 -65 8 0 15 9 15 20 0 11 7 20 15 20 8 0 19
-9 25 -20 6 -11 18 -20 27 -20 13 0 13 3 3 15 -10 12 -10 21 -1 42 18 40 -8
73 -59 73 l-40 0 0 -65z m69 36 c19 -12 6 -41 -19 -41 -15 0 -20 7 -20 25 0
26 14 31 39 16z"/>
<path d="M770 755 c0 -51 3 -65 15 -65 11 0 15 11 16 38 l0 37 16 -32 c9 -18
19 -33 23 -33 4 0 14 15 23 33 l16 32 0 -37 c1 -27 5 -38 16 -38 12 0 15 14
15 65 0 76 -19 88 -47 30 -9 -19 -20 -35 -23 -35 -3 0 -14 16 -23 35 -28 58
-47 46 -47 -30z"/>
<path d="M995 764 c-14 -31 -25 -60 -25 -65 0 -15 20 -10 26 6 4 9 19 15 35
15 17 0 32 -6 35 -15 4 -8 13 -15 21 -15 8 0 13 6 10 13 -39 93 -52 117 -63
117 -8 0 -25 -25 -39 -56z m55 -16 c0 -5 -9 -8 -20 -8 -18 0 -19 3 -9 21 9 17
13 19 20 8 5 -8 9 -17 9 -21z"/>
<path d="M1160 755 l0 -65 34 0 c44 0 79 28 79 65 0 37 -35 65 -79 65 l-34 0
0 -65z m84 13 c12 -21 -6 -44 -39 -50 -17 -2 -21 3 -23 35 -3 37 -2 38 24 35
15 -2 32 -11 38 -20z"/>
<path d="M1340 755 c0 -37 4 -65 10 -65 6 0 10 28 10 65 0 37 -4 65 -10 65 -6
0 -10 -28 -10 -65z"/>
<path d="M1430 755 l0 -65 40 0 c29 0 40 4 40 15 0 9 -9 15 -25 15 -23 0 -25
3 -25 50 0 38 -4 50 -15 50 -12 0 -15 -14 -15 -65z"/>
<path d="M1570 754 l0 -65 43 3 c45 3 54 21 12 26 -23 3 -25 7 -25 53 0 37 -4
49 -15 49 -12 0 -15 -14 -15 -66z"/>
<path d="M1730 802 c-46 -37 -15 -112 46 -112 13 0 33 9 44 20 59 59 -25 145
-90 92z m80 -47 c0 -33 -30 -49 -58 -29 -12 8 -22 21 -22 29 0 8 10 21 22 29
28 20 58 4 58 -29z"/>
</g>
</svg>
